<svg width="1023" height="287" viewBox="0 0 1023 287" fill="none" xmlns="http://www.w3.org/2000/svg">
<g clip-path="url(#clip0_1_2)">
<rect width="1023" height="286.145" fill="black"/>
<path d="M1023 0H0V286.145H1023V0Z" fill="black"/>
<path d="M376.279 168.341H380.523V192.057H306.737V188.856L362.73 97.7744H326.653C322.844 97.7744 320.558 98.0169 319.796 98.5019C319.035 98.8899 318.382 99.9084 317.837 101.557L313.103 116.835H308.859V93.1185H378.891V96.3194L323.061 187.401H362.73C365.342 187.401 367.192 187.352 368.28 187.255C369.368 187.061 370.076 186.722 370.402 186.237C370.837 185.655 371.218 184.782 371.545 183.618L376.279 168.341ZM468.88 168.341H473.124V192.057H394.93V188.274L403.909 187.401C405.65 187.207 406.684 186.819 407.01 186.237C407.337 185.655 407.5 183.667 407.5 180.272V104.904C407.5 101.509 407.337 99.5204 407.01 98.9384C406.684 98.3564 405.65 97.9684 403.909 97.7744L394.93 97.0469V93.1185H471.001V116.835H466.921L462.187 101.557C461.861 100.393 461.48 99.5689 461.044 99.0839C460.718 98.5019 460.01 98.1624 458.922 98.0654C457.834 97.8714 455.984 97.7744 453.372 97.7744H421.702V139.823H443.577C446.189 139.823 448.039 139.775 449.127 139.678C450.216 139.484 450.923 139.144 451.25 138.659C451.685 138.077 452.066 137.204 452.392 136.04L455.494 125.128H459.738V159.174H455.494L452.392 148.262C452.066 147.098 451.685 146.274 451.25 145.789C450.923 145.207 450.216 144.867 449.127 144.77C448.039 144.576 446.189 144.479 443.577 144.479H421.702V187.401H455.331C457.943 187.401 459.793 187.352 460.881 187.255C461.969 187.061 462.677 186.722 463.003 186.237C463.439 185.655 463.819 184.782 464.146 183.618L468.88 168.341ZM489.624 96.9014V93.1185H528.966V96.9014L519.988 97.7744C518.246 97.8714 517.212 98.2594 516.886 98.9384C516.559 99.5204 516.396 101.509 516.396 104.904V147.68L557.207 104.031C559.928 101.218 561.289 99.5204 561.289 98.9384C561.397 98.2594 560.527 97.8714 558.677 97.7744L550.351 96.9014V93.1185H581.368V96.9014L573.042 97.7744C571.954 97.8714 571.083 98.0654 570.43 98.3564C569.777 98.5504 569.015 99.0839 568.145 99.9569C567.383 100.733 566.077 102.091 564.227 104.031L538.761 131.384L569.777 180.272C571.192 182.503 572.226 184.103 572.879 185.073C573.641 186.043 574.403 186.673 575.164 186.964C575.926 187.158 576.96 187.304 578.266 187.401L586.102 188.274V192.057H560.636L529.293 141.569L516.396 155.246V180.272C516.396 183.667 516.559 185.655 516.886 186.237C517.212 186.819 518.246 187.207 519.988 187.401L528.966 188.274V192.057H489.624V188.274L498.603 187.401C500.344 187.207 501.378 186.819 501.704 186.237C502.031 185.655 502.194 183.667 502.194 180.272V104.904C502.194 101.509 502.031 99.5204 501.704 98.9384C501.378 98.2594 500.344 97.8714 498.603 97.7744L489.624 96.9014ZM668.631 147.098V136.331C668.631 118.581 667.651 107.377 665.692 102.721C663.516 97.3864 660.414 94.0885 656.387 92.8275C654.102 92.0515 651.327 91.6635 648.062 91.6635C644.797 91.6635 641.967 92.0515 639.573 92.8275C637.288 93.6035 635.383 94.9615 633.859 96.9014C632.336 98.8414 631.084 100.878 630.105 103.012C629.234 105.146 628.527 108.153 627.983 112.033C627.33 117.659 627.003 125.952 627.003 136.913V147.389C627.003 159.223 627.493 167.662 628.472 172.706C629.561 177.653 630.867 181.193 632.39 183.327C635.764 188.08 640.988 190.456 648.062 190.456C656.659 190.456 662.21 187.255 664.713 180.854C667.325 174.355 668.631 163.103 668.631 147.098ZM647.735 193.512C629.561 193.512 615.957 189.147 606.924 180.417C598 171.59 593.538 158.883 593.538 142.297C593.538 125.613 598.327 112.518 607.904 103.012C617.589 93.4095 631.248 88.6081 648.878 88.6081C666.508 88.6081 679.786 93.167 688.71 102.285C697.743 111.306 702.259 124.158 702.259 140.842C702.259 157.525 697.688 170.475 688.546 179.69C679.514 188.904 665.91 193.512 647.735 193.512ZM716.795 97.0469V93.1185H763.157C776.434 93.1185 786.61 96.9499 793.684 104.613C800.758 112.276 804.295 123.091 804.295 137.059V147.971C804.295 162.036 800.758 172.9 793.684 180.563C786.61 188.225 776.434 192.057 763.157 192.057H716.795V188.274L725.774 187.401C727.515 187.207 728.549 186.819 728.876 186.237C729.202 185.655 729.365 183.667 729.365 180.272V104.904C729.365 101.509 729.202 99.5204 728.876 98.9384C728.549 98.3564 727.515 97.9684 725.774 97.7744L716.795 97.0469ZM762.83 97.7744H743.568V187.401H762.83C768.707 187.401 773.55 186.431 777.359 184.491C781.168 182.551 783.998 179.253 785.848 174.597C787.807 169.844 788.786 163.394 788.786 155.246V129.784C788.786 121.733 787.807 115.38 785.848 110.724C783.998 106.068 781.168 102.77 777.359 100.83C773.55 98.7929 768.707 97.7744 762.83 97.7744ZM898.194 168.341H902.438V192.057H824.244V188.274L833.223 187.401C834.964 187.207 835.998 186.819 836.324 186.237C836.651 185.655 836.814 183.667 836.814 180.272V104.904C836.814 101.509 836.651 99.5204 836.324 98.9384C835.998 98.3564 834.964 97.9684 833.223 97.7744L824.244 97.0469V93.1185H900.316V116.835H896.235L891.501 101.557C891.174 100.393 890.794 99.5689 890.358 99.0839C890.032 98.5019 889.324 98.1624 888.236 98.0654C887.148 97.8714 885.298 97.7744 882.686 97.7744H851.016V139.823H872.891C875.503 139.823 877.353 139.775 878.441 139.678C879.53 139.484 880.237 139.144 880.564 138.659C880.999 138.077 881.38 137.204 881.706 136.04L884.808 125.128H889.052V159.174H884.808L881.706 148.262C881.38 147.098 880.999 146.274 880.564 145.789C880.237 145.207 879.53 144.867 878.441 144.77C877.353 144.576 875.503 144.479 872.891 144.479H851.016V187.401H884.645C887.257 187.401 889.107 187.352 890.195 187.255C891.283 187.061 891.991 186.722 892.317 186.237C892.752 185.655 893.133 184.782 893.46 183.618L898.194 168.341ZM955.179 188.856C962.471 188.856 968.348 187.255 972.81 184.055C977.381 180.854 979.666 176.149 979.666 169.941C979.666 164.994 977.979 160.872 974.606 157.574C971.232 154.179 965.355 151.463 956.975 149.426L945.711 146.516C937.44 144.479 931.128 141.036 926.775 136.186C922.422 131.336 920.245 125.419 920.245 118.435C920.245 113.779 921.442 109.414 923.836 105.34C926.34 101.266 930.094 97.9684 935.1 95.4465C940.215 92.9245 946.691 91.6635 954.526 91.6635C963.233 91.6635 970.252 93.1185 975.585 96.0284C980.918 98.8414 984.618 102.527 986.686 107.086C988.753 111.645 989.243 116.544 988.155 121.782L974.442 124.4C975.857 115.38 974.823 108.444 971.341 103.594C967.967 98.7444 962.09 96.3194 953.71 96.3194C947.072 96.3194 941.848 97.9199 938.039 101.121C934.23 104.225 932.325 108.784 932.325 114.798C932.325 119.551 933.849 123.624 936.896 127.019C939.943 130.317 945.33 132.936 953.057 134.876L964.321 137.786C982.496 142.248 991.583 151.706 991.583 166.158C991.583 171.299 990.223 175.955 987.502 180.126C984.89 184.2 980.863 187.449 975.422 189.874C970.089 192.299 963.342 193.512 955.179 193.512C949.52 193.512 944.079 192.736 938.855 191.184C933.74 189.632 929.332 186.964 925.632 183.182C922.041 179.399 919.647 174.161 918.449 167.468L928.244 164.558C928.788 170.96 930.366 175.907 932.978 179.399C935.59 182.891 938.855 185.364 942.773 186.819C946.691 188.177 950.826 188.856 955.179 188.856Z" fill="white"/>
<path d="M48.9734 107.138H83.4337V81.0117L209.494 82.1235L126.73 195.52H177.095L258.681 82.1235V50.4392H48.9734V107.138Z" fill="url(#paint0_linear_1_2)"/>
<path d="M186.62 90.2085H145.386L62.033 199.436V233.899H279.693V177.201H246.115V202.216H104.446L186.62 90.2085Z" fill="url(#paint1_linear_1_2)"/>
</g>
<defs>
<linearGradient id="paint0_linear_1_2" x1="149.851" y1="50.4392" x2="149.851" y2="244.436" gradientUnits="userSpaceOnUse">
<stop stop-color="#4A94D8"/>
<stop offset="0.0001" stop-color="#092D61"/>
</linearGradient>
<linearGradient id="paint1_linear_1_2" x1="170.863" y1="39.9027" x2="170.863" y2="233.899" gradientUnits="userSpaceOnUse">
<stop stop-color="#4A94D8"/>
<stop offset="0.0001" stop-color="#092D61"/>
</linearGradient>
<clipPath id="clip0_1_2">
<rect width="1023" height="286.145" fill="white"/>
</clipPath>
</defs>
</svg>
