<svg width="940" height="295" viewBox="0 0 940 295" fill="none" xmlns="http://www.w3.org/2000/svg">
<rect width="940" height="295" fill="white"/>
<path d="M345.75 173.55H349.65V198H281.85V194.7L333.3 100.8H300.15C296.65 100.8 294.55 101.05 293.85 101.55C293.15 101.95 292.55 103 292.05 104.7L287.7 120.45H283.8V96H348.15V99.3L296.85 193.2H333.3C335.7 193.2 337.4 193.15 338.4 193.05C339.4 192.85 340.05 192.5 340.35 192C340.75 191.4 341.1 190.5 341.4 189.3L345.75 173.55ZM430.838 173.55H434.738V198H362.888V194.1L371.138 193.2C372.738 193 373.688 192.6 373.988 192C374.288 191.4 374.438 189.35 374.438 185.85V108.15C374.438 104.65 374.288 102.6 373.988 102C373.688 101.4 372.738 101 371.138 100.8L362.888 100.05V96H432.787V120.45H429.038L424.688 104.7C424.388 103.5 424.038 102.65 423.638 102.15C423.338 101.55 422.688 101.2 421.688 101.1C420.688 100.9 418.988 100.8 416.588 100.8H387.488V144.15H407.588C409.988 144.15 411.688 144.1 412.688 144C413.688 143.8 414.338 143.45 414.638 142.95C415.038 142.35 415.388 141.45 415.688 140.25L418.538 129H422.438V164.1H418.538L415.688 152.85C415.388 151.65 415.038 150.8 414.638 150.3C414.338 149.7 413.688 149.35 412.688 149.25C411.688 149.05 409.988 148.95 407.588 148.95H387.488V193.2H418.388C420.788 193.2 422.488 193.15 423.488 193.05C424.488 192.85 425.138 192.5 425.438 192C425.838 191.4 426.188 190.5 426.488 189.3L430.838 173.55ZM449.899 99.9V96H486.049V99.9L477.799 100.8C476.199 100.9 475.249 101.3 474.949 102C474.649 102.6 474.499 104.65 474.499 108.15V152.25L511.999 107.25C514.499 104.35 515.749 102.6 515.749 102C515.849 101.3 515.049 100.9 513.349 100.8L505.699 99.9V96H534.199V99.9L526.549 100.8C525.549 100.9 524.749 101.1 524.149 101.4C523.549 101.6 522.849 102.15 522.049 103.05C521.349 103.85 520.149 105.25 518.449 107.25L495.049 135.45L523.549 185.85C524.849 188.15 525.799 189.8 526.399 190.8C527.099 191.8 527.799 192.45 528.499 192.75C529.199 192.95 530.149 193.1 531.349 193.2L538.549 194.1V198H515.149L486.349 145.95L474.499 160.05V185.85C474.499 189.35 474.649 191.4 474.949 192C475.249 192.6 476.199 193 477.799 193.2L486.049 194.1V198H449.899V194.1L458.149 193.2C459.749 193 460.699 192.6 460.999 192C461.299 191.4 461.449 189.35 461.449 185.85V108.15C461.449 104.65 461.299 102.6 460.999 102C460.699 101.3 459.749 100.9 458.149 100.8L449.899 99.9ZM614.382 151.65V140.55C614.382 122.25 613.482 110.7 611.682 105.9C609.682 100.4 606.832 97 603.132 95.7C601.032 94.9 598.482 94.5 595.482 94.5C592.482 94.5 589.882 94.9 587.682 95.7C585.582 96.5 583.832 97.9 582.432 99.9C581.032 101.9 579.882 104 578.982 106.2C578.182 108.4 577.532 111.5 577.032 115.5C576.432 121.3 576.132 129.85 576.132 141.15V151.95C576.132 164.15 576.582 172.85 577.482 178.05C578.482 183.15 579.682 186.8 581.082 189C584.182 193.9 588.982 196.35 595.482 196.35C603.382 196.35 608.482 193.05 610.782 186.45C613.182 179.75 614.382 168.15 614.382 151.65ZM595.182 199.5C578.482 199.5 565.982 195 557.682 186C549.482 176.9 545.382 163.8 545.382 146.7C545.382 129.5 549.782 116 558.582 106.2C567.482 96.3 580.032 91.35 596.232 91.35C612.432 91.35 624.632 96.05 632.832 105.45C641.132 114.75 645.282 128 645.282 145.2C645.282 162.4 641.082 175.75 632.682 185.25C624.382 194.75 611.882 199.5 595.182 199.5ZM658.639 100.05V96H701.239C713.439 96 722.789 99.95 729.289 107.85C735.789 115.75 739.039 126.9 739.039 141.3V152.55C739.039 167.05 735.789 178.25 729.289 186.15C722.789 194.05 713.439 198 701.239 198H658.639V194.1L666.889 193.2C668.489 193 669.439 192.6 669.739 192C670.039 191.4 670.189 189.35 670.189 185.85V108.15C670.189 104.65 670.039 102.6 669.739 102C669.439 101.4 668.489 101 666.889 100.8L658.639 100.05ZM700.939 100.8H683.239V193.2H700.939C706.339 193.2 710.789 192.2 714.289 190.2C717.789 188.2 720.389 184.8 722.089 180C723.889 175.1 724.789 168.45 724.789 160.05V133.8C724.789 125.5 723.889 118.95 722.089 114.15C720.389 109.35 717.789 105.95 714.289 103.95C710.789 101.85 706.339 100.8 700.939 100.8ZM825.32 173.55H829.22V198H757.37V194.1L765.62 193.2C767.22 193 768.17 192.6 768.47 192C768.77 191.4 768.92 189.35 768.92 185.85V108.15C768.92 104.65 768.77 102.6 768.47 102C768.17 101.4 767.22 101 765.62 100.8L757.37 100.05V96H827.27V120.45H823.52L819.17 104.7C818.87 103.5 818.52 102.65 818.12 102.15C817.82 101.55 817.17 101.2 816.17 101.1C815.17 100.9 813.47 100.8 811.07 100.8H781.97V144.15H802.07C804.47 144.15 806.17 144.1 807.17 144C808.17 143.8 808.82 143.45 809.12 142.95C809.52 142.35 809.87 141.45 810.17 140.25L813.02 129H816.92V164.1H813.02L810.17 152.85C809.87 151.65 809.52 150.8 809.12 150.3C808.82 149.7 808.17 149.35 807.17 149.25C806.17 149.05 804.47 148.95 802.07 148.95H781.97V193.2H812.87C815.27 193.2 816.97 193.15 817.97 193.05C818.97 192.85 819.62 192.5 819.92 192C820.32 191.4 820.67 190.5 820.97 189.3L825.32 173.55ZM877.682 194.7C884.382 194.7 889.782 193.05 893.882 189.75C898.082 186.45 900.182 181.6 900.182 175.2C900.182 170.1 898.632 165.85 895.532 162.45C892.432 158.95 887.032 156.15 879.332 154.05L868.982 151.05C861.382 148.95 855.582 145.4 851.582 140.4C847.582 135.4 845.582 129.3 845.582 122.1C845.582 117.3 846.682 112.8 848.882 108.6C851.182 104.4 854.632 101 859.232 98.4C863.932 95.8 869.882 94.5 877.082 94.5C885.082 94.5 891.532 96 896.432 99C901.332 101.9 904.732 105.7 906.632 110.4C908.532 115.1 908.982 120.15 907.982 125.55L895.382 128.25C896.682 118.95 895.732 111.8 892.532 106.8C889.432 101.8 884.032 99.3 876.332 99.3C870.232 99.3 865.432 100.95 861.932 104.25C858.432 107.45 856.682 112.15 856.682 118.35C856.682 123.25 858.082 127.45 860.882 130.95C863.682 134.35 868.632 137.05 875.732 139.05L886.082 142.05C902.782 146.65 911.132 156.4 911.132 171.3C911.132 176.6 909.882 181.4 907.382 185.7C904.982 189.9 901.282 193.25 896.282 195.75C891.382 198.25 885.182 199.5 877.682 199.5C872.482 199.5 867.482 198.7 862.682 197.1C857.982 195.5 853.932 192.75 850.532 188.85C847.232 184.95 845.032 179.55 843.932 172.65L852.932 169.65C853.432 176.25 854.882 181.35 857.282 184.95C859.682 188.55 862.682 191.1 866.282 192.6C869.882 194 873.682 194.7 877.682 194.7Z" fill="black"/>
<path d="M45 110.453H76.6644V83.5186L192.497 84.6648L116.448 201.57H162.727L237.693 84.6648V52H45V110.453Z" fill="url(#paint0_linear_56_21)"/>
<path d="M171.479 93H133.59L57 205.607V241.137H257V182.684H226.147V208.473H95.9716L171.479 93Z" fill="url(#paint1_linear_56_21)"/>
<defs>
<linearGradient id="paint0_linear_56_21" x1="137.693" y1="52" x2="137.693" y2="252" gradientUnits="userSpaceOnUse">
<stop stop-color="#4A94D8"/>
<stop offset="1" stop-color="#092D61"/>
</linearGradient>
<linearGradient id="paint1_linear_56_21" x1="157" y1="41.1375" x2="157" y2="241.137" gradientUnits="userSpaceOnUse">
<stop stop-color="#4A94D8"/>
<stop offset="1" stop-color="#092D61"/>
</linearGradient>
</defs>
</svg>
