<svg width="1288" height="295" viewBox="0 0 1288 295" fill="none" xmlns="http://www.w3.org/2000/svg">
<rect width="1169" height="295" fill="white"/>
<path d="M55.3072 106.453H86.9716V79.5186L202.804 80.6648L126.755 197.57H173.034L248 80.6648V48H55.3072V106.453Z" fill="url(#paint0_linear_45_14)"/>
<path d="M162.479 99.8625H124.59L48 212.47V248H248V189.547H217.147V215.335H86.9716L162.479 99.8625Z" fill="url(#paint1_linear_45_14)"/>
<path d="M307.473 196L347.522 115.092H311.731V104.75H364.656L324.608 185.658H362.831V196H307.473ZM394.539 196V104.75H439.555V115.092H406.097V134.558H432.458V144.9H406.097V185.658H439.555V196H394.539ZM470.398 196V104.75H493.312C499.057 104.75 503.991 105.899 508.115 108.197C512.238 110.495 515.415 113.537 517.645 117.322C519.943 121.04 521.092 125.129 521.092 129.59C521.092 134.592 519.673 139.087 516.834 143.075C513.995 147.063 510.109 150.003 505.174 151.896L535.794 196H522.309L493.312 154.025H481.956V196H470.398ZM481.956 144.292H493.312C497.232 144.292 500.409 143.582 502.842 142.162C505.343 140.675 507.168 138.817 508.317 136.586C509.534 134.288 510.142 131.956 510.142 129.59C510.142 125.332 508.588 121.851 505.478 119.147C502.437 116.444 498.381 115.092 493.312 115.092H481.956V144.292ZM598.872 197.825C592.315 197.825 586.13 196.608 580.317 194.175C574.572 191.674 569.503 188.261 565.109 183.935C560.783 179.609 557.37 174.573 554.869 168.828C552.435 163.082 551.219 156.931 551.219 150.375C551.219 143.819 552.435 137.668 554.869 131.922C557.37 126.177 560.783 121.141 565.109 116.815C569.503 112.489 574.572 109.11 580.317 106.676C586.13 104.175 592.315 102.925 598.872 102.925C605.496 102.925 611.68 104.175 617.426 106.676C623.171 109.11 628.207 112.489 632.533 116.815C636.926 121.141 640.34 126.177 642.773 131.922C645.274 137.668 646.524 143.819 646.524 150.375C646.524 156.931 645.274 163.082 642.773 168.828C640.34 174.573 636.926 179.609 632.533 183.935C628.207 188.261 623.171 191.674 617.426 194.175C611.68 196.608 605.496 197.825 598.872 197.825ZM598.872 186.875C605.563 186.875 611.613 185.253 617.02 182.008C622.428 178.696 626.686 174.269 629.795 168.726C632.972 163.184 634.56 157.067 634.56 150.375C634.56 143.616 632.972 137.499 629.795 132.024C626.686 126.481 622.428 122.087 617.02 118.843C611.613 115.531 605.563 113.875 598.872 113.875C592.18 113.875 586.13 115.531 580.723 118.843C575.383 122.087 571.125 126.481 567.948 132.024C564.771 137.499 563.183 143.616 563.183 150.375C563.183 157.067 564.771 163.184 567.948 168.726C571.125 174.269 575.383 178.696 580.723 182.008C586.13 185.253 592.18 186.875 598.872 186.875ZM718.055 197.825C711.364 197.825 705.111 196.608 699.299 194.175C693.486 191.674 688.349 188.261 683.887 183.935C679.494 179.609 676.047 174.573 673.546 168.828C671.045 163.082 669.794 156.931 669.794 150.375C669.794 143.819 671.045 137.668 673.546 131.922C676.047 126.177 679.494 121.141 683.887 116.815C688.349 112.489 693.486 109.11 699.299 106.676C705.111 104.175 711.364 102.925 718.055 102.925C724.071 102.925 729.749 103.905 735.089 105.865C740.429 107.825 745.194 110.597 749.385 114.179L744.214 135.471C741.713 131.28 738.266 127.765 733.872 124.926C729.479 122.02 724.409 120.567 718.664 120.567C713.189 120.567 708.221 121.919 703.76 124.622C699.366 127.258 695.885 130.841 693.317 135.369C690.748 139.831 689.464 144.832 689.464 150.375C689.464 155.85 690.748 160.852 693.317 165.381C695.885 169.909 699.366 173.525 703.76 176.229C708.221 178.865 713.189 180.183 718.664 180.183C724.342 180.183 729.377 178.764 733.771 175.925C738.232 173.019 741.713 169.47 744.214 165.279L749.385 186.571C745.126 190.086 740.327 192.857 734.987 194.885C729.715 196.845 724.071 197.825 718.055 197.825ZM817.991 197.825C811.3 197.825 805.047 196.608 799.234 194.175C793.421 191.674 788.284 188.261 783.823 183.935C779.43 179.609 775.983 174.573 773.482 168.828C770.981 163.082 769.73 156.931 769.73 150.375C769.73 143.819 770.981 137.668 773.482 131.922C775.983 126.177 779.43 121.141 783.823 116.815C788.284 112.489 793.421 109.11 799.234 106.676C805.047 104.175 811.3 102.925 817.991 102.925C824.683 102.925 830.935 104.175 836.748 106.676C842.561 109.11 847.664 112.489 852.058 116.815C856.519 121.141 860 126.177 862.501 131.922C865.002 137.668 866.252 143.819 866.252 150.375C866.252 156.931 865.002 163.082 862.501 168.828C860 174.573 856.519 179.609 852.058 183.935C847.664 188.261 842.561 191.674 836.748 194.175C830.935 196.608 824.683 197.825 817.991 197.825ZM817.991 180.183C823.466 180.183 828.401 178.865 832.794 176.229C837.188 173.525 840.669 169.909 843.237 165.381C845.873 160.852 847.191 155.85 847.191 150.375C847.191 144.832 845.873 139.831 843.237 135.369C840.669 130.841 837.188 127.258 832.794 124.622C828.401 121.919 823.466 120.567 817.991 120.567C812.516 120.567 807.548 121.919 803.087 124.622C798.694 127.258 795.213 130.841 792.644 135.369C790.076 139.831 788.791 144.832 788.791 150.375C788.791 155.85 790.076 160.852 792.644 165.381C795.213 169.909 798.694 173.525 803.087 176.229C807.548 178.865 812.516 180.183 817.991 180.183ZM893.172 196V104.75H924.197C931.497 104.75 938.121 105.933 944.07 108.299C950.085 110.664 955.256 113.943 959.582 118.133C963.976 122.256 967.355 127.089 969.721 132.632C972.087 138.175 973.27 144.089 973.27 150.375C973.27 156.661 972.087 162.575 969.721 168.118C967.355 173.661 963.976 178.527 959.582 182.718C955.256 186.841 950.085 190.086 944.07 192.451C938.121 194.817 931.497 196 924.197 196H893.172ZM910.814 179.575H922.575C927.712 179.575 932.241 178.831 936.161 177.344C940.082 175.79 943.36 173.694 945.996 171.058C948.7 168.355 950.728 165.245 952.079 161.731C953.499 158.216 954.209 154.431 954.209 150.375C954.209 146.319 953.499 142.534 952.079 139.019C950.728 135.437 948.7 132.328 945.996 129.692C943.36 126.988 940.082 124.893 936.161 123.406C932.241 121.919 927.712 121.175 922.575 121.175H910.814V179.575ZM1000.09 196V104.75H1048.76V120.567H1017.74V134.558H1041.66V149.767H1017.74V179.575H1048.76V196H1000.09ZM1099.07 198.028C1093.53 198.028 1088.26 197.014 1083.25 194.986C1078.32 192.891 1074.37 190.39 1071.39 187.483L1076.36 167.206C1078.73 171.329 1082.07 174.776 1086.4 177.547C1090.72 180.251 1095.15 181.603 1099.68 181.603C1103.4 181.603 1106.3 180.589 1108.4 178.561C1110.56 176.533 1111.64 174.066 1111.64 171.16C1111.64 168.794 1111.07 166.834 1109.92 165.279C1108.84 163.725 1107.52 162.44 1105.96 161.426C1104.48 160.412 1103.16 159.635 1102.01 159.094L1091.26 153.721C1088.15 152.166 1085.18 150.341 1082.34 148.246C1079.5 146.083 1077.17 143.413 1075.35 140.236C1073.59 137.059 1072.71 133.139 1072.71 128.475C1072.71 123.338 1073.86 118.843 1076.16 114.99C1078.52 111.137 1081.83 108.13 1086.09 105.967C1090.35 103.804 1095.35 102.722 1101.1 102.722C1106.51 102.722 1111.3 103.601 1115.5 105.358C1119.75 107.048 1123.2 108.873 1125.84 110.833L1121.17 130.604C1118.47 127.089 1115.23 124.284 1111.44 122.189C1107.72 120.026 1104 118.944 1100.29 118.944C1096.98 118.944 1094.41 119.789 1092.58 121.479C1090.82 123.169 1089.95 125.264 1089.95 127.765C1089.95 129.32 1090.28 130.706 1090.96 131.922C1091.7 133.139 1092.75 134.22 1094.1 135.167C1095.45 136.113 1097.04 137.059 1098.87 138.006L1109.72 143.379C1111.54 144.258 1113.54 145.407 1115.7 146.826C1117.86 148.178 1119.96 149.902 1121.98 151.997C1124.01 154.093 1125.67 156.627 1126.95 159.601C1128.24 162.508 1128.88 165.989 1128.88 170.044C1128.88 175.317 1127.66 180.082 1125.23 184.34C1122.8 188.531 1119.35 191.877 1114.89 194.378C1110.49 196.811 1105.22 198.028 1099.07 198.028Z" fill="black"/>
<defs>
<linearGradient id="paint0_linear_45_14" x1="148" y1="48" x2="148" y2="248" gradientUnits="userSpaceOnUse">
<stop stop-color="#4A94D8"/>
<stop offset="1" stop-color="#092D61"/>
</linearGradient>
<linearGradient id="paint1_linear_45_14" x1="148" y1="48" x2="148" y2="248" gradientUnits="userSpaceOnUse">
<stop stop-color="#4A94D8"/>
<stop offset="1" stop-color="#092D61"/>
</linearGradient>
</defs>
</svg>
